<svg xmlns="http://www.w3.org/2000/svg" xmlns:xlink="http://www.w3.org/1999/xlink" version="1.1" width="1000" height="1000" viewBox="0 0 1000 1000" xml:space="preserve">
<desc>Created with Fabric.js 3.5.0</desc>
<defs>
</defs>
<rect x="0" y="0" width="100%" height="100%" style="opacity: 0"/>
<g transform="matrix(37.8788 0 0 37.8788 500.0001 454.5456)" id="352184" style="stroke:white; stroke-width: 1; fill: white">
<g style="" vector-effect="non-scaling-stroke">
		<g transform="matrix(1 0 0 1 -5 4.5)">
<filter id="SVGID_18" y="-420%" height="940%" x="-353.33%" width="806.66%">
	<feGaussianBlur in="SourceAlpha" stdDeviation="5"/>
	<feOffset dx="10" dy="10" result="oBlur"/>
	<feFlood flood-color="rgb(0,0,0)" flood-opacity="1"/>
	<feComposite in2="oBlur" operator="in"/>
	<feMerge>
		<feMergeNode/>
		<feMergeNode in="SourceGraphic"/>
	</feMerge>
</filter>
<path style="stroke-dasharray: none; stroke-linecap: round; stroke-dashoffset: 0; stroke-linejoin: round; stroke-miterlimit: 4; is-custom-font: none; font-file-url: none; fill: none; fill-rule: nonzero; opacity: 1;filter: url(#SVGID_18);" transform=" translate(-7, -16.5)" d="M 4 14 V 18.4 C 4 18.7314 4.26863 19 4.6 19 H 10" stroke-linecap="round"/>
</g>
		<g transform="matrix(1 0 0 1 4.5 4.5)">
<filter id="SVGID_19" y="-420%" height="940%" x="-420%" width="940%">
	<feGaussianBlur in="SourceAlpha" stdDeviation="5"/>
	<feOffset dx="10" dy="10" result="oBlur"/>
	<feFlood flood-color="rgb(0,0,0)" flood-opacity="1"/>
	<feComposite in2="oBlur" operator="in"/>
	<feMerge>
		<feMergeNode/>
		<feMergeNode in="SourceGraphic"/>
	</feMerge>
</filter>
<path style="stroke-dasharray: none; stroke-linecap: round; stroke-dashoffset: 0; stroke-linejoin: round; stroke-miterlimit: 4; is-custom-font: none; font-file-url: none; fill: none; fill-rule: nonzero; opacity: 1;filter: url(#SVGID_19);" transform=" translate(-16.5, -16.5)" d="M 19 14 V 18.4 C 19 18.7314 18.7314 19 18.4 19 H 14" stroke-linecap="round"/>
</g>
		<g transform="matrix(1 0 0 1 4.5 -4.5)">
<filter id="SVGID_20" y="-420%" height="940%" x="-420%" width="940%">
	<feGaussianBlur in="SourceAlpha" stdDeviation="5"/>
	<feOffset dx="10" dy="10" result="oBlur"/>
	<feFlood flood-color="rgb(0,0,0)" flood-opacity="1"/>
	<feComposite in2="oBlur" operator="in"/>
	<feMerge>
		<feMergeNode/>
		<feMergeNode in="SourceGraphic"/>
	</feMerge>
</filter>
<path style="stroke-dasharray: none; stroke-linecap: round; stroke-dashoffset: 0; stroke-linejoin: round; stroke-miterlimit: 4; is-custom-font: none; font-file-url: none; fill: none; fill-rule: nonzero; opacity: 1;filter: url(#SVGID_20);" transform=" translate(-16.5, -7.5)" d="M 14 5 H 18.4 C 18.7314 5 19 5.26863 19 5.6 V 10" stroke-linecap="round"/>
</g>
		<g transform="matrix(1 0 0 1 -5 -4.5)">
<filter id="SVGID_21" y="-420%" height="940%" x="-353.33%" width="806.66%">
	<feGaussianBlur in="SourceAlpha" stdDeviation="5"/>
	<feOffset dx="10" dy="10" result="oBlur"/>
	<feFlood flood-color="rgb(0,0,0)" flood-opacity="1"/>
	<feComposite in2="oBlur" operator="in"/>
	<feMerge>
		<feMergeNode/>
		<feMergeNode in="SourceGraphic"/>
	</feMerge>
</filter>
<path style="stroke-dasharray: none; stroke-linecap: round; stroke-dashoffset: 0; stroke-linejoin: round; stroke-miterlimit: 4; is-custom-font: none; font-file-url: none; fill: none; fill-rule: nonzero; opacity: 1;filter: url(#SVGID_21);" transform=" translate(-7, -7.5)" d="M 4 10 V 5.6 C 4 5.26863 4.26863 5 4.6 5 H 10" stroke-linecap="round"/>
</g>
		<g transform="matrix(1 0 0 1 0 8.5)">
<filter id="SVGID_22" y="-686.67%" height="1473.34%" x="-520%" width="1140%">
	<feGaussianBlur in="SourceAlpha" stdDeviation="5"/>
	<feOffset dx="10" dy="10" result="oBlur"/>
	<feFlood flood-color="rgb(0,0,0)" flood-opacity="1"/>
	<feComposite in2="oBlur" operator="in"/>
	<feMerge>
		<feMergeNode/>
		<feMergeNode in="SourceGraphic"/>
	</feMerge>
</filter>
<path style="stroke-dasharray: none; stroke-linecap: round; stroke-dashoffset: 0; stroke-linejoin: round; stroke-miterlimit: 4; is-custom-font: none; font-file-url: none; fill: none; fill-rule: nonzero; opacity: 1;filter: url(#SVGID_22);" transform=" translate(-12, -20.5)" d="M 14 19 V 20 C 14 21.1046 13.1046 22 12 22 C 10.8954 22 10 21.1046 10 20 V 19" stroke-linecap="round"/>
</g>
		<g transform="matrix(1 0 0 1 -6.5 0)">
<filter id="SVGID_23" y="-520%" height="1140%" x="-686.67%" width="1473.34%">
	<feGaussianBlur in="SourceAlpha" stdDeviation="5"/>
	<feOffset dx="10" dy="10" result="oBlur"/>
	<feFlood flood-color="rgb(0,0,0)" flood-opacity="1"/>
	<feComposite in2="oBlur" operator="in"/>
	<feMerge>
		<feMergeNode/>
		<feMergeNode in="SourceGraphic"/>
	</feMerge>
</filter>
<path style="stroke-dasharray: none; stroke-linecap: round; stroke-dashoffset: 0; stroke-linejoin: round; stroke-miterlimit: 4; is-custom-font: none; font-file-url: none; fill: none; fill-rule: nonzero; opacity: 1;filter: url(#SVGID_23);" transform=" translate(-5.5, -12)" d="M 4 10 H 5 C 6.10457 10 7 10.8954 7 12 C 7 13.1046 6.10457 14 5 14 H 4" stroke-linecap="round"/>
</g>
		<g transform="matrix(1 0 0 1 8.5 0)">
<filter id="SVGID_24" y="-520%" height="1140%" x="-686.67%" width="1473.34%">
	<feGaussianBlur in="SourceAlpha" stdDeviation="5"/>
	<feOffset dx="10" dy="10" result="oBlur"/>
	<feFlood flood-color="rgb(0,0,0)" flood-opacity="1"/>
	<feComposite in2="oBlur" operator="in"/>
	<feMerge>
		<feMergeNode/>
		<feMergeNode in="SourceGraphic"/>
	</feMerge>
</filter>
<path style="stroke-dasharray: none; stroke-linecap: round; stroke-dashoffset: 0; stroke-linejoin: round; stroke-miterlimit: 4; is-custom-font: none; font-file-url: none; fill: none; fill-rule: nonzero; opacity: 1;filter: url(#SVGID_24);" transform=" translate(-20.5, -12)" d="M 19 10 H 20 C 21.1046 10 22 10.8954 22 12 C 22 13.1046 21.1046 14 20 14 H 19" stroke-linecap="round"/>
</g>
		<g transform="matrix(1 0 0 1 0 -8.5)">
<filter id="SVGID_25" y="-686.67%" height="1473.34%" x="-520%" width="1140%">
	<feGaussianBlur in="SourceAlpha" stdDeviation="5"/>
	<feOffset dx="10" dy="10" result="oBlur"/>
	<feFlood flood-color="rgb(0,0,0)" flood-opacity="1"/>
	<feComposite in2="oBlur" operator="in"/>
	<feMerge>
		<feMergeNode/>
		<feMergeNode in="SourceGraphic"/>
	</feMerge>
</filter>
<path style="stroke-dasharray: none; stroke-linecap: round; stroke-dashoffset: 0; stroke-linejoin: round; stroke-miterlimit: 4; is-custom-font: none; font-file-url: none; fill: none; fill-rule: nonzero; opacity: 1;filter: url(#SVGID_25);" transform=" translate(-12, -3.5)" d="M 14 5 V 4 C 14 2.89543 13.1046 2 12 2 C 10.8954 2 10 2.89543 10 4 V 5" stroke-linecap="round"/>
</g>
</g>
</g>
<g transform="matrix(2.3422 0 0 2.3422 527.4717 454.545)" id="536842" style="stroke: blue">
<g style="" vector-effect="non-scaling-stroke">
		<g transform="matrix(1 0 0 1 -3.9 -37.3)" id="Pictogram">
<circle style="fill: white; stroke-width: 1.5; stroke-dasharray: none; stroke-linecap: butt; stroke-dashoffset: 0; stroke-linejoin: miter; stroke-miterlimit: 4; is-custom-font: none; font-file-url: none; fill-rule: nonzero; opacity: 1;" cx="0" cy="0" r="9"/>
</g>
		<g transform="matrix(1 0 0 1 -7.7 11.6)" id="Pictogram">
<circle style="fill: white; stroke-width: 1.5; stroke-dasharray: none; stroke-linecap: butt; stroke-dashoffset: 0; stroke-linejoin: miter; stroke-miterlimit: 4; is-custom-font: none; font-file-url: none;  fill-rule: nonzero; opacity: 1;" cx="0" cy="0" r="9"/>
</g>
		<g transform="matrix(1 0 0 1 0 -12.8875)" id="Pictogram">
<path style="fill: white; stroke-width: 1.5; stroke-dasharray: none; stroke-linecap: butt; stroke-dashoffset: 0; stroke-linejoin: miter; stroke-miterlimit: 4; is-custom-font: none; font-file-url: none; fill-rule: nonzero; opacity: 1;" transform=" translate(-72, -59.1125)" d="M 76.1 62.1 L 52.2 38.2 c -4.5 -4.5 -11.9 -4.5 -16.4 0 L 14.7 59.3 l 16.4 16.4 l 21.9 -22 L 79.4 80 c 2.3 2.3 5.2 3.4 8.2 3.4 h 41.7 l -21.3 -21.3 H 76.1 z" stroke-linecap="round"/>
</g>
		<g transform="matrix(1 0 0 1 48.3 -29.5)" id="Pictogram">
<path style="fill: white; stroke-width: 1.5; stroke-dasharray: none; stroke-linecap: butt; stroke-dashoffset: 0; stroke-linejoin: miter; stroke-miterlimit: 4; is-custom-font: none; font-file-url: none; fill-rule: nonzero; opacity: 1;" transform=" translate(-120.3, -42.5)" d="M 144 19.7 l -16.5 16.5 c -1 1 -1.5 2.3 -1.5 3.6 v 18.4 l -19.3 -19.3 V 10.3 c 0 -2.8 -2.3 -5.1 -5.1 -5.1 c -2.8 0 -5.1 2.3 -5.1 5.1 v 30.9 c 0 1.4 0.6 2.7 1.5 3.6 l 35 35 c 2.3 -2.3 3.4 -5.2 3.4 -8.2 V 42 l 7.7 -7.7 L 144 19.7 L 144 19.7 z" stroke-linecap="round"/>
</g>
		<g transform="matrix(1 0 0 1 -47.6 28.9)" id="Pictogram">
<path style="fill: white; stroke-width: 1.5; stroke-dasharray: none; stroke-linecap: butt; stroke-dashoffset: 0; stroke-linejoin: miter; stroke-miterlimit: 4; is-custom-font: none; font-file-url: none; fill-rule: nonzero; opacity: 1;" transform=" translate(-24.4, -100.9)" d="M 47.3 99.2 L 11.1 63 c -2.3 2.3 -3.4 5.2 -3.4 8.2 v 29.4 l 0.1 0 L 0 108.4 V 123 l 16.5 -16.5 c 1 -1 1.5 -2.3 1.5 -3.6 V 84.4 L 38.6 105 v 28.7 c 0 2.8 2.3 5.1 5.1 5.1 c 2.8 0 5.1 -2.3 5.1 -5.1 v -30.9 C 48.8 101.4 48.3 100.2 47.3 99.2 z" stroke-linecap="round"/>
</g>
		<g transform="matrix(1 0 0 1 0 0)" id="Pictogram">
<rect style="stroke:none; stroke-width: 1.5; stroke-dasharray: none; stroke-linecap: butt; stroke-dashoffset: 0; stroke-linejoin: miter; stroke-miterlimit: 4; is-custom-font: none; font-file-url: none; fill: none; fill-rule: nonzero; opacity: 0;" x="-72" y="-72" rx="0" ry="0" width="144" height="144"/>
</g>
</g>
</g>	
</svg>