<svg height="24" viewBox="0 0 24 24" width="24" xmlns="http://www.w3.org/2000/svg"><path d="m12 13c2.209139 0 4-1.790861 4-4s-1.790861-4-4-4-4 1.790861-4 4 1.790861 4 4 4zm-6 9v-3c0-3.3137085 2.6862915-6 6-6s6 2.6862915 6 6v3m-5-17c.4037285-1.66433835 2.0151447-3 4-3 2.172216 0 3.98052 1.790861 4 4-.01948 2.209139-1.827784 4-4 4h-1 1c3.287544 0 6 2.6862915 6 6v2m-12-13c-.4037285-1.66433835-2.01514471-3-4-3-2.17221596 0-3.98051997 1.790861-4 4 .01948003 2.209139 1.82778404 4 4 4h1-1c-3.28754398 0-6 2.6862915-6 6v2" fill="none" stroke="#000" stroke-width="2"/></svg>